<?xml version="1.0" encoding="utf-8"?>
<!-- Generator: Adobe Illustrator 26.5.0, SVG Export Plug-In . SVG Version: 6.00 Build 0)  -->
<svg version="1.1" id="Layer_1" xmlns="http://www.w3.org/2000/svg" xmlns:xlink="http://www.w3.org/1999/xlink" x="0px" y="0px"
	 viewBox="0 0 512 512" style="enable-background:new 0 0 512 512;" xml:space="preserve">
<style type="text/css">
	.st0{fill:#652D89;}
	.st1{fill:#FFFFFF;}
	.st2{fill:none;}
</style>
<g id="XMLID_2_">
	<path id="XMLID_52_" class="st0" d="M259.51,264.4l5.05-5.05c-2.1-9.26,3.79-18.38,13.05-20.48c3.09-0.7,6.31-0.56,9.4,0.56
		l-11.64,11.22l8.56,8.84l11.64-10.94c0.84,2.39,0.98,5.05,0.7,7.58c-0.28,4.07-1.96,7.86-4.77,10.66
		c-4.35,4.21-10.66,5.75-16.41,3.79l-5.47,5.47l-16.13,16.13l-5.61,5.33c1.4,7.16-3.23,14.03-10.38,15.43
		c-7.16,1.4-14.03-3.23-15.43-10.38s3.23-14.03,10.38-15.43c1.4-0.28,2.95-0.28,4.49-0.14l6.45-6.45L259.51,264.4z"/>
	<circle id="XMLID_53_" class="st1" cx="234.96" cy="299.9" r="4.49"/>
	<path id="XMLID_54_" class="st0" d="M243.37,280.53l-17.82-19.22l-0.7-1.12l-4.77-18.66c-0.28-0.84,0-1.68,0.56-2.24
		c0.56-0.56,1.54-0.7,2.24-0.42l18.24,6.17l0.98,0.84l17.26,18.66l10.38,10.94l18.38,19.78c2.24,2.24,2.24,5.89,0,8.28l0,0
		l-8.56,7.86c-2.39,2.1-6.03,1.96-8.28-0.42l0,0l-17.68-19.08L243.37,280.53z"/>
	<polygon id="XMLID_55_" class="st1" points="243.51,253.04 242.39,253.04 242.39,253.04 241.83,253.6 241.83,254.72 241.83,254.72 
		275.08,290.64 276.2,290.64 276.2,290.64 276.76,290.08 276.76,288.95 276.76,288.95 	"/>
	<polygon id="XMLID_56_" class="st1" points="238.88,247.28 229.76,244.2 225.7,247.99 228.08,257.25 	"/>
	<path id="XMLID_57_" class="st1" d="M273.12,305.65c1.4,1.54,3.79,1.82,5.33,0.42l0.14-0.14l5.47-5.05
		c1.54-1.4,1.54-3.79,0.28-5.33l-0.28-0.28l-3.37-3.09l-10.94,10.1L273.12,305.65z"/>
	<line id="XMLID_58_" class="st2" x1="181.36" y1="202.39" x2="181.36" y2="202.39"/>
	<circle id="XMLID_59_" class="st0" cx="319.13" cy="248.97" r="4.91"/>
	<circle id="XMLID_60_" class="st0" cx="306.09" cy="224.98" r="4.91"/>
	<circle id="XMLID_61_" class="st0" cx="213.07" cy="223.01" r="4.91"/>
	<circle id="XMLID_62_" class="st0" cx="197.21" cy="246.58" r="4.91"/>
	<path id="XMLID_63_" class="st0" d="M201.14,283.34c-0.84,0.14-1.54,0.14-2.39,0l-1.68,2.81l-2.53-0.98l0.7-3.23
		c-0.7-0.42-1.26-0.98-1.68-1.68l-3.23,0.7l-1.12-2.53l2.81-1.82c-0.14-0.84-0.14-1.54,0-2.39l-2.81-1.68l0.98-2.39l3.23,0.7
		c0.42-0.7,0.98-1.26,1.68-1.68l-0.84-3.23l2.53-1.12l1.82,2.81c0.7-0.14,1.54-0.14,2.24,0l1.68-2.81l2.53,0.98l-0.7,3.23
		c0.7,0.42,1.26,0.98,1.68,1.68l3.23-0.84l1.12,2.53l-2.81,1.82c0.14,0.84,0.14,1.54,0,2.39l2.81,1.68l-0.98,2.53l-2.81-0.84
		c-0.42,0.7-0.98,1.26-1.68,1.68l0.7,3.09l-2.53,1.12L201.14,283.34z"/>
	<circle id="XMLID_64_" class="st0" cx="208.16" cy="306.35" r="4.91"/>
	<circle id="XMLID_65_" class="st0" cx="225.41" cy="328.52" r="4.91"/>
	<path id="XMLID_66_" class="st0" d="M174.49,114.7c-0.56-3.65,0.28-7.3,2.24-10.38l-10.94-10.94c-9.12,11.22-9.12,27.22,0,38.44
		l10.94-10.94C175.47,119.05,174.77,116.95,174.49,114.7z"/>
	<path id="XMLID_67_" class="st0" d="M208.16,135.89l-10.94-10.94c-4.91,3.23-11.22,3.23-16.13,0l-10.94,10.94
		c11.22,9.12,27.22,9.12,38.44,0H208.16z"/>
	<path id="XMLID_68_" class="st0" d="M323.06,82.01c-8.98,0-17.4,3.93-23.15,10.66h46.16C340.32,85.94,331.9,82.15,323.06,82.01z"/>
	<path id="XMLID_69_" class="st0" d="M186.69,97.87c3.65-0.56,7.3,0.14,10.38,2.24l10.94-10.94c-11.22-9.12-27.22-9.12-38.44,0
		l10.94,10.94C182.34,98.85,184.45,98.15,186.69,97.87z"/>
	<path id="XMLID_70_" class="st0" d="M203.53,110.07c0.56,3.65-0.28,7.3-2.39,10.38l10.94,10.94c9.12-11.22,9.12-27.22,0-38.44
		l-10.94,10.94C202.41,105.86,203.25,107.97,203.53,110.07z"/>
	<path id="XMLID_71_" class="st0" d="M189.08,103.76h-1.4c-4.77,0.7-8,5.19-7.3,9.82c0.7,4.77,5.19,8,9.82,7.3
		c2.39-0.28,4.35-1.68,5.75-3.51c1.26-1.82,1.82-3.93,1.54-6.03C196.93,106.99,193.29,103.76,189.08,103.76z"/>
	<path id="XMLID_72_" class="st0" d="M295.99,98.85c-1.68,3.23-2.67,6.87-3.09,10.52h60.33c-0.42-3.65-1.4-7.3-3.09-10.52H295.99z"
		/>
	<path id="XMLID_73_" class="st0" d="M323.06,142.76c8.84,0,17.26-3.93,23.01-10.66h-46.16
		C305.81,138.83,314.22,142.76,323.06,142.76z"/>
	<path id="XMLID_74_" class="st0" d="M354.91,345.49l3.23-3.65c-0.98,1.12-2.1,2.1-3.37,3.09L354.91,345.49z"/>
	<path id="XMLID_75_" class="st0" d="M358.42,341.85l2.81-3.37C360.24,339.6,359.4,340.72,358.42,341.85z"/>
	<path id="XMLID_76_" class="st0" d="M295.99,125.93h54.16c1.68-3.23,2.81-6.87,3.09-10.52H292.9
		C293.32,119.19,294.3,122.7,295.99,125.93z"/>
	<path id="XMLID_77_" class="st0" d="M330.36,289.23l-3.79-5.47c-4.35,1.12-8.28,2.95-11.93,5.47l1.82,6.17
		c-2.39,1.82-4.63,4.07-6.31,6.59l-6.73-1.4c-2.24,3.79-3.93,7.86-4.77,12.07l5.89,3.51c-0.42,3.09-0.42,6.17,0,9.12l-5.47,3.79
		c1.12,4.35,2.95,8.28,5.47,11.93l6.45-1.68c1.4,1.82,3.09,3.51,4.77,4.91c2.81-4.35,5.47-8.7,8.14-13.19
		c-6.03-6.59-5.75-16.7,0.84-22.87c2.81-2.67,6.59-4.21,10.38-4.35c1.4-4.91,2.24-9.96,2.81-15.01
		C335.41,288.81,332.88,288.95,330.36,289.23z"/>
	<path id="XMLID_78_" class="st0" d="M229.48,383.23L229.48,383.23C229.9,382.81,230.47,381.83,229.48,383.23z"/>
	<path id="XMLID_79_" class="st0" d="M276.62,377.2C276.62,377.2,279.01,378.74,276.62,377.2l3.23-13.61l-10.94-4.49l-7.3,11.64
		c-3.37-0.56-6.73-0.56-9.96,0l-7.44-11.93l-10.94,4.35l3.09,13.61c-2.53,1.82-4.77,4.07-6.73,6.59l10.1,9.12
		c6.45-9.12,18.94-11.22,28.06-4.91c1.82,1.26,3.51,2.95,4.91,4.91l10.1-9.12C280.83,381.13,278.87,379.02,276.62,377.2z"/>
	<path id="XMLID_88_" class="st0" d="M384.37,149.22c6.59-10.94,10.1-23.57,10.1-36.34v-0.56c0-70.71,14.87-109.71,14.87-109.71
		h-3.51c-29.32-0.14-58.36,6.17-85.16,18.38c-38.58-27.92-90.77-27.92-129.36,0C164.67,8.78,135.48,2.46,106.16,2.46h-3.51
		c0,0,14.87,39.28,15.01,109.71v0.56c0,12.77,3.51,25.39,10.1,36.34c-62.85,79.83-2.24,188.14,94.7,252.54
		c4.77,3.23,9.82,6.31,14.87,9.4c6.17,3.65,12.35,7.16,18.8,10.38c6.45-3.23,12.63-6.87,18.8-10.52c4.91-2.95,9.82-6.03,14.59-9.26
		c19.78-13.05,38.16-28.2,54.86-45.04c3.65-3.65,7.16-7.3,10.52-10.94v-0.7c1.12-0.98,2.1-1.96,3.09-3.09
		c0.98-0.98,1.96-2.1,2.81-3.37c3.23-3.93,6.45-7.86,9.4-11.93C413.13,269.03,426.18,202.67,384.37,149.22z M256,8.36
		c19.92,0,39.42,5.75,55.98,16.7c-1.4,0.7-2.95,1.54-4.21,2.24c-24.27,14.59-43.63,35.5-51.91,60.33
		c-8.28-25.11-27.5-46.02-51.91-60.33c-1.26-0.7-2.81-1.54-4.07-2.24C216.72,14.25,236.08,8.36,256,8.36z M273.12,214.45
		c-2.24,3.51-5.61,6.17-9.4,7.72c-4.77,1.96-10.24,1.96-15.15,0c-5.19-2.1-9.26-6.31-11.36-11.36c12.49-2.67,25.39-2.67,37.88,0
		C274.52,212.07,273.82,213.33,273.12,214.45z M266.66,185.83c-3.23,3.51-6.87,6.73-10.66,9.68c-3.79-2.95-7.3-6.17-10.66-9.68
		c-5.75-6.17-11.93-14.59-11.93-22.87l3.23-3.93l19.22-23.29l19.22,23.29l3.23,3.93C278.59,171.1,272.56,179.52,266.66,185.83z
		 M167.75,166.19l-5.05-2.24c-1.68-0.7-2.39-2.67-1.68-4.35l2.24-4.77l0.98-1.26c-2.95-1.82-5.75-3.93-8.28-6.31l-0.84,1.26
		l-4.07,3.37c-1.4,1.12-3.51,0.98-4.77-0.42l-3.51-4.21c-1.12-1.4-0.98-3.51,0.42-4.63l0,0l4.07-3.37l1.26-0.56
		c-1.96-2.95-3.51-6.03-4.77-9.26l-1.26,0.7l-5.19,1.26c-1.82,0.42-3.65-0.56-4.07-2.39l-1.26-5.47c-0.42-1.82,0.7-3.51,2.53-4.07
		l5.19-1.26h1.54c-0.42-3.37-0.42-6.87,0-10.38h-1.4l-5.19-1.12c-1.82-0.28-2.95-2.1-2.67-3.93v-0.14l1.12-5.47
		c0.42-1.82,2.1-2.95,3.93-2.53l5.47,1.12l1.26,0.56c0.98-2.95,2.39-5.89,3.93-8.7l0.42-0.56l-1.12-0.56l-4.77-2.81
		c-1.4-1.12-1.68-3.23-0.56-4.63l0,0l3.37-4.35c1.12-1.4,3.23-1.68,4.63-0.56l4.21,3.23l0.84,0.98c2.39-2.39,5.05-4.63,8-6.45
		l-0.7-0.98l-2.39-4.77c-0.84-1.68-0.14-3.65,1.54-4.49l4.91-2.39c1.68-0.84,3.65-0.14,4.49,1.54l0,0l2.39,4.77l0.28,1.12
		c3.23-1.12,6.59-1.96,10.1-2.39v-1.12v-5.47c0-1.82,1.54-3.23,3.37-3.23h5.47c1.82,0,3.37,1.4,3.37,3.23v5.47v0.98
		c2.24,0.28,4.63,0.7,6.87,1.4v-0.98l1.96-4.91c0.7-1.68,2.67-2.53,4.35-1.82l0,0l5.05,1.96c1.68,0.7,2.53,2.67,1.82,4.35
		l-1.96,4.91l-0.56,0.84l0.84,0.42c2.67,1.54,5.33,3.37,7.58,5.47l0.56-0.84l3.93-3.51c1.26-1.26,3.37-1.26,4.77,0l3.65,4.07
		c1.26,1.26,1.26,3.37,0,4.63l0,0l-4.35,3.23l-0.98,0.56c1.96,2.81,3.65,5.89,5.05,8.98l0.98-0.56l5.19-1.54
		c1.82-0.56,3.65,0.56,4.07,2.24l1.54,5.19c0.56,1.82-0.56,3.65-2.24,4.07l-5.19,1.54h-1.12c0.56,3.37,0.7,6.87,0.56,10.24h1.12
		l5.47,0.98c1.82,0.28,2.95,2.1,2.67,3.79l-0.98,5.47c-0.42,1.82-2.1,2.95-3.93,2.67l-5.47-0.98l-1.12-0.42
		c-0.98,3.23-2.39,6.45-4.07,9.4l1.12,0.56l4.35,3.09c1.54,0.98,1.82,3.09,0.84,4.63l0,0l-3.23,4.35c-1.12,1.54-3.23,1.82-4.63,0.7
		l-4.35-3.09l-0.84-0.98c-2.39,2.53-5.05,4.77-7.86,6.73l0.84,0.98l2.53,4.63c0.84,1.68,0.28,3.65-1.4,4.49l-4.77,2.53
		c-1.68,0.84-3.65,0.28-4.49-1.4l-2.67-4.63l-0.42-1.26c-3.23,1.26-6.59,2.1-10.1,2.67l0.42,1.4v5.47c0,1.82-1.4,3.37-3.23,3.37
		h-5.47c-1.82,0-3.37-1.4-3.51-3.23l0,0v-5.47l0.28-1.26c-3.51-0.28-6.87-0.98-10.24-1.96v1.54l-2.24,4.77
		C171.4,166.19,169.44,166.89,167.75,166.19z M289.39,399.51L289.39,399.51C289.39,399.51,289.81,402.17,289.39,399.51z
		 M337.79,288.95c-0.56,5.05-1.4,10.1-2.81,15.01c-2.67,9.4-6.45,18.38-11.36,26.94c-2.53,4.49-5.19,8.84-8.14,13.19
		c-9.4,13.75-20.06,26.66-31.85,38.44l-0.98,0.98l-10.1,8.98c-9.54,8.7-16.41,13.75-16.41,13.89c0,0-6.87-5.19-16.41-13.89
		l-10.1-9.12v-0.28l-0.98-0.56c-23.99-24.13-54.58-62.01-54.58-100.87c0-23.01,14.03-46.72,37.18-60.33
		c1.12,2.95,2.67,5.89,4.35,8.56l8.56-1.96c2.39,3.09,5.19,5.89,8.28,8.28l-1.96,8.56l1.26,0.7l2.53,1.4h0.56
		c1.12,0.56,2.24,0.98,3.37,1.54c2.53,0.98,5.05,1.68,7.58,2.24l4.77-7.3c3.93,0.56,7.86,0.56,11.64,0l4.77,7.3
		c5.47-1.26,10.66-3.51,15.43-6.45l-1.96-8.56c3.09-2.39,5.89-5.19,8.28-8.28l8.56,1.96l0.7-1.26c0.56-0.84,0.98-1.68,1.4-2.53
		v-0.56c0.56-1.12,1.12-2.24,1.54-3.37c23.15,13.89,37.04,37.46,37.04,60.33C338.07,283.9,337.93,286.43,337.79,288.95z
		 M379.74,125.08c-0.42,1.82-2.1,2.95-3.93,2.67l-5.47-0.98l-1.12-0.42c-0.98,3.23-2.39,6.45-4.07,9.4l1.12,0.56l4.35,3.09
		c1.4,1.12,1.82,3.09,0.7,4.63l0,0l-3.23,4.35c-1.12,1.4-3.23,1.82-4.63,0.7l-4.35-3.09l-0.84-0.98c-2.39,2.53-5.05,4.77-7.86,6.73
		l0.84,0.98l2.53,4.63c0.84,1.68,0.28,3.65-1.4,4.49l-4.77,2.53c-1.68,0.84-3.65,0.28-4.49-1.4l-2.53-4.63l-0.42-1.26
		c-3.23,1.26-6.59,2.1-10.1,2.67l0.42,1.4v5.47c0,1.82-1.4,3.37-3.23,3.37h-5.47c-1.82,0-3.37-1.4-3.51-3.23v-5.47
		c0-0.56,0.14-0.98,0.28-1.4c-3.51-0.28-6.87-0.98-10.24-1.96v1.54l-2.24,4.77c-0.7,1.68-2.67,2.53-4.35,1.68l0,0l-5.05-2.24
		c-1.68-0.7-2.39-2.67-1.68-4.35l2.24-4.77l0.98-1.26c-2.95-1.82-5.75-3.93-8.28-6.31l-0.84,1.26l-4.07,3.37
		c-1.4,1.12-3.51,0.98-4.77-0.42l-3.51-4.21c-1.12-1.4-0.98-3.51,0.42-4.63l0,0l4.07-3.37c0.42-0.28,0.84-0.56,1.4-0.7
		c-1.82-2.81-3.37-5.89-4.63-9.12l-1.26,0.7l-5.19,1.26c-1.82,0.42-3.65-0.56-4.07-2.39l-1.26-5.47c-0.42-1.82,0.7-3.51,2.39-3.93
		l0,0l5.19-1.26h1.54c-0.42-3.37-0.42-6.87,0-10.38h-1.4l-5.19-1.12c-1.82-0.42-2.95-2.1-2.53-3.93l1.12-5.47
		c0.42-1.82,2.1-2.95,3.93-2.53l5.47,1.12l1.26,0.56c0.98-2.95,2.39-5.89,3.93-8.7l0.42-0.56l-1.12-0.56l-4.91-2.67
		c-1.4-1.12-1.68-3.23-0.56-4.63l0,0l3.37-4.35c1.12-1.4,3.23-1.68,4.63-0.56l4.21,3.23l0.84,0.98c2.39-2.39,5.05-4.63,8-6.45
		l-0.7-0.98l-2.39-4.77c-0.84-1.68-0.14-3.65,1.54-4.49l4.91-2.39c1.68-0.84,3.65-0.14,4.49,1.54l2.39,4.77l0.28,1.12
		c3.23-1.12,6.59-1.96,10.1-2.39v-1.12v-5.47c0-1.82,1.54-3.23,3.37-3.23h5.47c1.82,0,3.37,1.4,3.37,3.23v5.47v0.98
		c2.24,0.28,4.63,0.7,6.87,1.4v-0.98l1.96-4.91c0.7-1.68,2.67-2.53,4.35-1.82l5.05,1.96c1.68,0.7,2.53,2.67,1.82,4.35l-1.96,4.91
		l-0.56,0.84l0.84,0.42c2.67,1.54,5.33,3.37,7.58,5.47l0.56-0.84l3.93-3.51c1.26-1.26,3.37-1.26,4.77,0l3.65,4.07
		c1.26,1.26,1.26,3.37,0,4.63l0,0l-3.93,3.51l-0.98,0.56c1.96,2.81,3.65,5.89,5.05,8.98l0.98-0.56l5.19-1.54
		c1.82-0.42,3.65,0.56,4.07,2.24l1.54,5.19c0.56,1.82-0.56,3.65-2.24,4.07l-5.19,1.54h-1.12c0.28,3.37,0.28,6.73-0.28,10.1h1.12
		l5.47,0.98c1.82,0.28,2.95,2.1,2.67,3.79L379.74,125.08z"/>
	<path id="XMLID_97_" class="st0" d="M276.62,482c2.81,0,7.44,0,9.26-1.96c1.26-2.24,1.82-4.77,1.54-7.3v-16.98
		c-6.31-1.82-12.91-2.67-19.5-2.67c-3.93-0.14-8,0.7-11.64,2.24c-2.81,1.26-5.19,3.37-6.87,6.03c-1.54,2.81-2.39,5.89-2.24,9.12
		v23.71c0,3.23,0.7,6.31,2.24,9.12c1.54,2.67,3.93,4.77,6.73,6.03c3.65,1.54,7.72,2.24,11.64,2.1c2.24,0,4.49,0,6.73,0
		c2.24,0,4.35-0.42,6.45-0.7l4.77-0.7c0-2.24-0.56-6.87-2.53-8.28c-2.1-0.98-4.49-1.26-6.87-0.84l-5.47,0.42h-3.23
		c-1.96,0-3.79-0.42-5.47-1.26c-1.26-0.7-2.39-1.82-2.95-3.23c-0.56-1.4-0.7-2.95-0.7-4.49v-19.36c0-1.54,0.14-3.09,0.7-4.49
		s1.54-2.67,2.81-3.51c1.68-0.84,3.65-1.4,5.47-1.26h2.53h2.53l2.95,0.28h0.7L276.62,482z M80.21,492.95v16.41
		c3.09,0.84,6.17,1.54,9.4,1.96c3.37,0.42,6.73,0.7,10.24,0.7c3.93,0.14,8-0.7,11.64-2.24c2.81-1.26,5.19-3.37,6.87-6.03
		c1.54-2.81,2.39-5.89,2.24-8.98v-2.95c0.28-4.49-0.7-8.98-2.81-12.91c-3.09-3.79-7.86-5.75-12.77-5.47h-0.84v-4.49h14.17
		c0-2.53,0-6.59-1.82-8.14c-1.96-1.12-4.21-1.54-6.45-1.4h-5.89v-5.47H92.55v5.47H82.31c0,2.53,0,6.59,1.82,8.14
		c1.96,1.12,4.21,1.54,6.45,1.4h1.82V482h7.01c2.67-0.28,5.33,0.56,7.3,2.39c1.54,2.1,2.24,4.77,2.1,7.44v0.7
		c0,1.54-0.28,3.09-0.7,4.49c-0.56,1.54-1.54,2.67-2.95,3.51c-1.68,0.84-3.65,1.26-5.47,1.26c-2.95,0-5.75-0.28-8.56-0.84v-0.56
		c0-1.12-0.14-2.1-0.42-3.23c-0.14-0.7-0.56-1.54-0.98-2.1C87.78,493.09,83.01,493.09,80.21,492.95 M127.35,469.24
		c1.26,8,1.96,10.94,11.36,9.68c3.37-1.12,6.87-1.12,10.24,0c1.26,0.7,2.39,1.82,2.95,3.23c0.56,1.54,0.84,3.09,0.7,4.77v5.19
		c0,1.54-0.28,3.23-0.7,4.63c-0.56,1.4-1.54,2.53-2.81,3.23c-1.68,0.84-3.65,1.26-5.47,1.12c-3.23,0-6.31-1.12-9.4-1.12
		c-0.98,0-2.1,0.14-3.09,0.42c-0.7,0.14-1.4,0.56-1.96,0.98c-1.82,1.54-1.82,5.89-1.82,8.42c2.53,0.56,5.19,0.98,7.86,1.26
		c2.81,0.28,5.61,0.42,8.56,0.42c4.07,0.14,8.14-0.7,11.79-2.24c2.81-1.26,5.19-3.37,6.73-5.89c1.54-2.81,2.24-5.89,2.1-9.12v-9.54
		c0.14-3.09-0.7-6.31-2.1-9.12c-1.54-2.67-3.93-4.63-6.73-5.89c-3.79-1.54-7.72-2.39-11.79-2.24c-2.81,0-5.75,0.14-8.56,0.42
		c-2.24,0-4.63,0.56-6.87,1.12L127.35,469.24z M240.71,511.47v-26.94c0-3.09-0.7-6.31-2.24-8.98c-1.68-2.67-4.07-4.77-6.87-6.03
		c-3.65-1.54-7.58-2.39-11.64-2.24c-4.49,0-8.84,0.42-13.19,1.54c-4.91-0.98-9.96-1.4-15.01-1.54c-3.93-0.14-8,0.7-11.64,2.24
		c-2.81,1.26-5.19,3.37-6.87,6.03c-1.54,2.67-2.39,5.89-2.39,8.98v26.66c3.09,0,8.14,0,9.96-2.24c1.4-2.39,1.96-5.05,1.68-7.86
		v-14.31c0-1.54,0.28-3.09,0.7-4.49c0.56-1.4,1.54-2.67,2.81-3.51c1.68-0.84,3.65-1.4,5.47-1.26c2.95,0,5.89,0.28,8.7,0.56v18.66
		c2.81,0,7.58,0,9.26-1.96c1.12-1.68,1.54-3.51,1.54-5.47c0-3.65,0-7.44,0-10.94c2.95-0.42,5.75-0.56,8.7-0.56
		c1.96-0.14,3.79,0.42,5.47,1.26c1.26,0.84,2.39,1.96,2.81,3.51c0.56,1.4,0.84,2.95,0.7,4.49v14.45c-0.28,2.67,0.28,5.47,1.68,7.86
		c1.96,2.1,6.87,2.24,9.96,2.24 M293.6,494.63v14.59c2.81,0.84,5.75,1.4,8.7,1.82c5.61,0.84,11.22,0.84,16.84,0
		c1.96-0.28,3.79-0.98,5.47-1.82c1.4-0.7,2.53-1.82,3.37-3.09c3.23-5.05,2.24-11.93,2.24-17.68c0-1.82,0-3.79,0-5.47
		c-0.14-1.4-0.42-2.67-0.98-3.93c-0.56-1.12-1.26-2.1-2.24-2.81c-1.4-0.98-2.81-1.68-4.35-2.24c-2.39-0.84-4.77-1.54-7.3-2.1
		c-1.68-0.42-3.51-0.84-5.05-1.26c-1.12-0.28-2.1-0.7-2.95-1.4c-0.42-0.42-0.84-0.84-1.12-1.54h-10.94
		c0.14,1.96,0.56,3.79,1.26,5.47c0.56,1.12,1.4,1.96,2.39,2.81c1.26,0.84,2.67,1.54,4.21,2.1c2.24,0.7,4.35,1.26,6.59,1.82
		c1.82,0.42,3.65,0.7,5.47,1.26c1.12,0.28,2.1,0.84,3.09,1.54c0.7,0.56,1.12,1.54,1.26,2.39c0.14,0.98,0.14,2.1,0,3.09
		c0,3.37,0.7,10.38-1.68,12.77c-0.84,0.7-1.82,1.12-2.81,1.12c-3.79,0.56-7.58,0.56-11.36,0c0.14-1.96-0.42-3.79-1.4-5.47
		C300.61,494.77,296.27,494.63,293.6,494.63 M352.95,453.8H342c-0.28,3.65,1.68,7.01,4.77,8.7c1.26,0.56,2.53,0.98,3.79,1.26
		c1.12,0.14,2.1,0.7,2.95,1.4c0.98,2.1,1.4,4.35,1.26,6.59h-0.7c-1.68,0.28-3.37,0.56-4.91,1.12c-2.53,0.84-4.91,2.1-6.87,3.93
		c-1.68,1.54-2.95,3.37-3.79,5.47c-0.84,1.96-1.12,4.21-1.12,6.31v6.03c0,1.96,0.28,4.07,0.98,5.89c0.84,2.1,2.1,3.93,3.79,5.47
		c1.96,1.82,4.35,3.09,6.87,3.93c6.73,1.96,13.89,1.96,20.62,0c2.53-0.84,4.77-2.1,6.73-3.93c1.68-1.54,2.95-3.37,3.79-5.47
		c0.84-1.96,1.12-4.21,1.12-6.31v-6.03c0-2.1-0.42-4.35-1.12-6.31c-0.84-2.1-2.1-3.93-3.79-5.47c-1.96-1.82-4.21-3.09-6.73-3.93
		l-2.53-0.7c0.28-3.09,0-6.17-0.56-9.12c-0.42-1.12-1.26-2.1-2.39-2.53c-1.4-0.42-2.81-0.84-4.35-1.12
		c-1.54-0.28-3.09-0.84-4.49-1.68c-0.7-0.42-1.12-1.12-1.54-1.82c-0.28-0.7-0.56-1.4-0.56-2.24 M369.64,492.95
		c0.14,2.39-0.84,4.63-2.53,6.03c-4.77,2.95-10.8,2.95-15.57,0c-1.68-1.54-2.67-3.79-2.53-6.03v-3.79
		c-0.14-2.39,0.84-4.49,2.53-6.03c4.77-2.95,10.8-2.95,15.57,0c1.68,1.54,2.67,3.79,2.53,6.03V492.95z M387.88,511.05
		c3.09,0,8.14,0,9.96-2.24c1.4-2.39,1.96-5.05,1.68-7.86c0-5.19,0-10.38,0-15.57c-0.14-2.39,0.84-4.49,2.53-6.03
		c4.77-2.81,10.8-2.81,15.57,0c1.68,1.54,2.67,3.79,2.53,6.03v15.57c-0.28,2.67,0.28,5.47,1.68,7.86c1.96,2.1,6.87,2.24,9.96,2.24
		v-26.52c0-2.1-0.42-4.35-1.26-6.31c-0.84-2.1-2.1-3.93-3.79-5.47c-1.96-1.82-4.35-3.09-6.87-3.93c-6.73-1.96-13.89-1.96-20.62,0
		c-2.53,0.84-4.77,2.1-6.73,3.93c-1.68,1.54-2.95,3.37-3.79,5.47c-0.84,1.96-1.26,4.21-1.26,6.31L387.88,511.05z"/>
</g>
</svg>
